<!DOCTYPE svg PUBLIC "-//W3C//DTD SVG 1.1//EN" "http://www.w3.org/Graphics/SVG/1.1/DTD/svg11.dtd">
<!-- Uploaded to: SVG Repo, www.svgrepo.com, Transformed by: SVG Repo Mixer Tools -->
<svg fill="#838383" xmlns="http://www.w3.org/2000/svg" width="800px" height="800px" viewBox="0 0 52 52" enable-background="new 0 0 52 52" xml:space="preserve" stroke="#838383">
<g id="SVGRepo_bgCarrier" stroke-width="0"/>
<g id="SVGRepo_tracerCarrier" stroke-linecap="round" stroke-linejoin="round"/>
<g id="SVGRepo_iconCarrier"> <path d="M45.2,2.3H6.8C4.2,2.3,2,4.5,2,7.1v4.8c0,0.9,0.7,1.6,1.6,1.6h44.8c0.9,0,1.6-0.7,1.6-1.6V7.1 C50,4.5,47.8,2.3,45.2,2.3z"/> <path d="M46.6,17.5H5.5c-0.9,0-1.6,0.7-1.6,1.6v26.4c0,2.6,2.2,4.8,4.8,4.8h34.8c2.6,0,4.8-2.2,4.8-4.8V19.1 C48.2,18.2,47.5,17.5,46.6,17.5z M32.8,25.5H19.2c-1.1,0-2-0.9-2-2s0.9-2,2-2h13.6c1.1,0,2,0.9,2,2C34.8,24.6,33.9,25.5,32.8,25.5z"/> </g>
</svg>